<svg width="16" height="16" viewBox="0 0 16 16" fill="none" xmlns="http://www.w3.org/2000/svg">
<circle cx="8" cy="8" r="8" fill="#0080FF"/>
<path d="M11.0891 12.3467L11.0998 7.86719C11.0998 6.66406 10.8814 5.99805 10.4445 5.86914C10.3944 5.83333 10.3693 5.79036 10.3693 5.74023C10.3693 5.68294 10.3944 5.63281 10.4445 5.58984C11.0819 5.13151 11.6083 4.48698 12.0236 3.65625C12.0523 3.5918 12.1024 3.55957 12.174 3.55957C12.2456 3.55957 12.2993 3.5918 12.3352 3.65625C12.7147 4.47982 13.259 5.12077 13.968 5.5791C14.0181 5.62207 14.0432 5.67578 14.0432 5.74023C14.0432 5.79753 14.0145 5.84049 13.9572 5.86914C13.4846 6.00521 13.2554 6.67122 13.2697 7.86719V11.6484C13.2697 12.3861 13.4058 12.8372 13.6779 13.002C13.9787 13.2025 14.2329 13.1237 14.4406 12.7656C14.5194 12.6296 14.6089 12.6009 14.7092 12.6797C14.8166 12.7513 14.8166 12.873 14.7092 13.0449C14.4943 13.3743 14.2902 13.7109 14.0969 14.0547C13.9107 14.3984 13.7209 14.735 13.5275 15.0645C13.4058 15.2721 13.2375 15.3115 13.0227 15.1826C11.9556 14.6742 11.329 14.0296 11.1428 13.249C11.1284 13.1917 11.0855 13.1523 11.0139 13.1309C10.9423 13.1094 10.8921 13.1201 10.8635 13.1631C10.4553 13.4925 10.0471 13.8398 9.63887 14.2051C9.23066 14.5632 8.95137 14.8926 8.80098 15.1934C8.67923 15.3652 8.54674 15.3617 8.40351 15.1826C8.00963 14.7243 7.62292 14.3734 7.24336 14.1299C6.87096 13.8864 6.37324 13.6895 5.75019 13.5391C5.61413 13.4889 5.54967 13.4281 5.55684 13.3564C5.564 13.2848 5.61055 13.2311 5.69648 13.1953C5.87552 13.1309 6.03665 13.0127 6.17988 12.8408C6.33027 12.6618 6.40547 12.3682 6.40547 11.96V7.41602C6.40547 6.68555 6.2694 6.23796 5.99726 6.07324C5.675 5.87988 5.41719 5.95866 5.22383 6.30957C5.14505 6.44564 5.05553 6.47428 4.95527 6.39551C4.85501 6.31673 4.85859 6.19141 4.96601 6.01953C5.1737 5.69727 5.37064 5.36426 5.55684 5.02051C5.75019 4.67676 5.94713 4.33301 6.14766 3.98926C6.2694 3.77441 6.43053 3.73503 6.63105 3.87109H6.6418C7.93802 4.55143 8.58613 5.48242 8.58613 6.66406L8.56465 12.1641C8.56465 12.3717 8.61836 12.5114 8.72578 12.583L9.64961 13.3457C9.72122 13.4102 9.80358 13.4173 9.89668 13.3672C10.4768 12.9089 10.8527 12.6152 11.0246 12.4863C11.0676 12.4577 11.0891 12.4111 11.0891 12.3467Z" fill="white"/>
</svg>
